<mxfile host="app.diagrams.net" agent="Mozilla/5.0 (Windows NT 10.0; Win64; x64) AppleWebKit/537.36 (KHTML, like Gecko) Chrome/135.0.0.0 Safari/537.36" version="26.2.12">
  <diagram name="第 1 页" id="d3z5Tx7qFdWdLEh3QjTV">
    <mxGraphModel dx="1044" dy="562" grid="1" gridSize="10" guides="1" tooltips="1" connect="1" arrows="1" fold="1" page="1" pageScale="1" pageWidth="827" pageHeight="1169" math="0" shadow="0">
      <root>
        <mxCell id="0" />
        <mxCell id="1" parent="0" />
        <mxCell id="HK79JXwR90Z8arDjIiN4-1" value="&lt;font style=&quot;font-size: 18px;&quot;&gt;查询工作票&lt;/font&gt;" style="swimlane;html=1;childLayout=stackLayout;startSize=20;rounded=0;shadow=0;labelBackgroundColor=none;strokeWidth=1;fontFamily=Verdana;fontSize=8;align=center;" vertex="1" parent="1">
          <mxGeometry x="80" y="30" width="640" height="690" as="geometry" />
        </mxCell>
        <mxCell id="HK79JXwR90Z8arDjIiN4-2" value="接收请求" style="swimlane;html=1;startSize=20;" vertex="1" parent="HK79JXwR90Z8arDjIiN4-1">
          <mxGeometry y="20" width="160" height="670" as="geometry">
            <mxRectangle y="20" width="40" height="730" as="alternateBounds" />
          </mxGeometry>
        </mxCell>
        <mxCell id="HK79JXwR90Z8arDjIiN4-3" style="edgeStyle=orthogonalEdgeStyle;rounded=0;orthogonalLoop=1;jettySize=auto;html=1;exitX=0.5;exitY=1;exitDx=0;exitDy=0;entryX=0.5;entryY=0;entryDx=0;entryDy=0;" edge="1" parent="HK79JXwR90Z8arDjIiN4-2" source="HK79JXwR90Z8arDjIiN4-4">
          <mxGeometry relative="1" as="geometry">
            <mxPoint x="80" y="160" as="targetPoint" />
          </mxGeometry>
        </mxCell>
        <mxCell id="HK79JXwR90Z8arDjIiN4-4" value="&lt;font style=&quot;font-size: 12px;&quot;&gt;开始&lt;/font&gt;" style="rounded=1;whiteSpace=wrap;html=1;shadow=0;labelBackgroundColor=none;strokeWidth=1;fontFamily=Verdana;fontSize=8;align=center;" vertex="1" parent="HK79JXwR90Z8arDjIiN4-2">
          <mxGeometry x="30" y="60" width="100" height="60" as="geometry" />
        </mxCell>
        <mxCell id="HK79JXwR90Z8arDjIiN4-98" style="edgeStyle=orthogonalEdgeStyle;rounded=0;orthogonalLoop=1;jettySize=auto;html=1;exitX=0.5;exitY=1;exitDx=0;exitDy=0;entryX=0.5;entryY=0;entryDx=0;entryDy=0;" edge="1" parent="HK79JXwR90Z8arDjIiN4-2" source="HK79JXwR90Z8arDjIiN4-96" target="HK79JXwR90Z8arDjIiN4-97">
          <mxGeometry relative="1" as="geometry" />
        </mxCell>
        <mxCell id="HK79JXwR90Z8arDjIiN4-99" value="&lt;font style=&quot;font-size: 10px;&quot;&gt;否&lt;/font&gt;" style="edgeLabel;html=1;align=center;verticalAlign=middle;resizable=0;points=[];" vertex="1" connectable="0" parent="HK79JXwR90Z8arDjIiN4-98">
          <mxGeometry x="-0.4222" y="-1" relative="1" as="geometry">
            <mxPoint as="offset" />
          </mxGeometry>
        </mxCell>
        <mxCell id="HK79JXwR90Z8arDjIiN4-113" style="edgeStyle=orthogonalEdgeStyle;rounded=0;orthogonalLoop=1;jettySize=auto;html=1;exitX=0;exitY=0.5;exitDx=0;exitDy=0;entryX=0.5;entryY=0;entryDx=0;entryDy=0;" edge="1" parent="HK79JXwR90Z8arDjIiN4-2" source="HK79JXwR90Z8arDjIiN4-96" target="HK79JXwR90Z8arDjIiN4-112">
          <mxGeometry relative="1" as="geometry">
            <Array as="points">
              <mxPoint x="10" y="198" />
              <mxPoint x="10" y="510" />
              <mxPoint x="80" y="510" />
            </Array>
          </mxGeometry>
        </mxCell>
        <mxCell id="HK79JXwR90Z8arDjIiN4-115" value="&lt;font style=&quot;font-size: 10px;&quot;&gt;是&lt;/font&gt;" style="edgeLabel;html=1;align=center;verticalAlign=middle;resizable=0;points=[];" vertex="1" connectable="0" parent="HK79JXwR90Z8arDjIiN4-113">
          <mxGeometry x="-0.9469" y="-3" relative="1" as="geometry">
            <mxPoint as="offset" />
          </mxGeometry>
        </mxCell>
        <mxCell id="HK79JXwR90Z8arDjIiN4-96" value="&lt;span style=&quot;font-size: 12px;&quot;&gt;参数中filters入参为空&lt;/span&gt;" style="rhombus;whiteSpace=wrap;html=1;rounded=0;shadow=0;labelBackgroundColor=none;strokeWidth=1;fontFamily=Verdana;fontSize=8;align=center;" vertex="1" parent="HK79JXwR90Z8arDjIiN4-2">
          <mxGeometry x="30" y="160" width="100" height="75" as="geometry" />
        </mxCell>
        <mxCell id="HK79JXwR90Z8arDjIiN4-114" style="edgeStyle=orthogonalEdgeStyle;rounded=0;orthogonalLoop=1;jettySize=auto;html=1;exitX=0;exitY=0.5;exitDx=0;exitDy=0;" edge="1" parent="HK79JXwR90Z8arDjIiN4-2" source="HK79JXwR90Z8arDjIiN4-97">
          <mxGeometry relative="1" as="geometry">
            <mxPoint x="80" y="590" as="targetPoint" />
            <Array as="points">
              <mxPoint x="10" y="318" />
              <mxPoint x="10" y="510" />
              <mxPoint x="81" y="510" />
            </Array>
          </mxGeometry>
        </mxCell>
        <mxCell id="HK79JXwR90Z8arDjIiN4-116" value="&lt;font style=&quot;font-size: 10px;&quot;&gt;是&lt;/font&gt;" style="edgeLabel;html=1;align=center;verticalAlign=middle;resizable=0;points=[];" vertex="1" connectable="0" parent="HK79JXwR90Z8arDjIiN4-114">
          <mxGeometry x="-0.9406" y="-1" relative="1" as="geometry">
            <mxPoint as="offset" />
          </mxGeometry>
        </mxCell>
        <mxCell id="HK79JXwR90Z8arDjIiN4-97" value="&lt;span style=&quot;font-size: 12px;&quot;&gt;参数中filters的属性都为空&lt;/span&gt;" style="rhombus;whiteSpace=wrap;html=1;rounded=0;shadow=0;labelBackgroundColor=none;strokeWidth=1;fontFamily=Verdana;fontSize=8;align=center;" vertex="1" parent="HK79JXwR90Z8arDjIiN4-2">
          <mxGeometry x="30" y="280" width="100" height="75" as="geometry" />
        </mxCell>
        <mxCell id="HK79JXwR90Z8arDjIiN4-112" value="&lt;span style=&quot;font-size: 12px;&quot;&gt;失败返回&lt;/span&gt;" style="whiteSpace=wrap;html=1;fontSize=8;fontFamily=Verdana;rounded=0;shadow=0;labelBackgroundColor=none;strokeWidth=1;" vertex="1" parent="HK79JXwR90Z8arDjIiN4-2">
          <mxGeometry x="30" y="590" width="100" height="60" as="geometry" />
        </mxCell>
        <mxCell id="HK79JXwR90Z8arDjIiN4-8" value="查询参数处理" style="swimlane;html=1;startSize=20;" vertex="1" parent="HK79JXwR90Z8arDjIiN4-1">
          <mxGeometry x="160" y="20" width="160" height="670" as="geometry" />
        </mxCell>
        <mxCell id="HK79JXwR90Z8arDjIiN4-103" style="edgeStyle=orthogonalEdgeStyle;rounded=0;orthogonalLoop=1;jettySize=auto;html=1;exitX=0.5;exitY=1;exitDx=0;exitDy=0;" edge="1" parent="HK79JXwR90Z8arDjIiN4-8" target="HK79JXwR90Z8arDjIiN4-102">
          <mxGeometry relative="1" as="geometry">
            <mxPoint x="80" y="220" as="sourcePoint" />
          </mxGeometry>
        </mxCell>
        <mxCell id="HK79JXwR90Z8arDjIiN4-15" style="edgeStyle=orthogonalEdgeStyle;rounded=0;orthogonalLoop=1;jettySize=auto;html=1;exitX=0;exitY=0.5;exitDx=0;exitDy=0;entryX=0.5;entryY=0;entryDx=0;entryDy=0;" edge="1" parent="HK79JXwR90Z8arDjIiN4-8" target="HK79JXwR90Z8arDjIiN4-24">
          <mxGeometry relative="1" as="geometry">
            <mxPoint x="80" y="910" as="targetPoint" />
            <Array as="points">
              <mxPoint x="10" y="618" />
              <mxPoint x="10" y="780" />
              <mxPoint x="80" y="780" />
            </Array>
            <mxPoint x="30" y="617.5" as="sourcePoint" />
          </mxGeometry>
        </mxCell>
        <mxCell id="HK79JXwR90Z8arDjIiN4-22" style="edgeStyle=orthogonalEdgeStyle;rounded=0;orthogonalLoop=1;jettySize=auto;html=1;exitX=0;exitY=0.5;exitDx=0;exitDy=0;entryX=0.5;entryY=0;entryDx=0;entryDy=0;" edge="1" parent="HK79JXwR90Z8arDjIiN4-8" target="HK79JXwR90Z8arDjIiN4-31">
          <mxGeometry relative="1" as="geometry">
            <Array as="points">
              <mxPoint x="10" y="838" />
              <mxPoint x="10" y="990" />
              <mxPoint x="80" y="990" />
            </Array>
            <mxPoint x="30" y="837.5" as="sourcePoint" />
          </mxGeometry>
        </mxCell>
        <mxCell id="HK79JXwR90Z8arDjIiN4-29" style="edgeStyle=orthogonalEdgeStyle;rounded=0;orthogonalLoop=1;jettySize=auto;html=1;exitX=0;exitY=0.5;exitDx=0;exitDy=0;entryX=0.5;entryY=0;entryDx=0;entryDy=0;" edge="1" parent="HK79JXwR90Z8arDjIiN4-8" target="HK79JXwR90Z8arDjIiN4-38">
          <mxGeometry relative="1" as="geometry">
            <Array as="points">
              <mxPoint x="10" y="1048" />
              <mxPoint x="10" y="1200" />
              <mxPoint x="80" y="1200" />
            </Array>
            <mxPoint x="30" y="1047.5" as="sourcePoint" />
          </mxGeometry>
        </mxCell>
        <mxCell id="HK79JXwR90Z8arDjIiN4-42" style="edgeStyle=orthogonalEdgeStyle;rounded=0;orthogonalLoop=1;jettySize=auto;html=1;exitX=0;exitY=0.5;exitDx=0;exitDy=0;entryX=0.5;entryY=0;entryDx=0;entryDy=0;" edge="1" parent="HK79JXwR90Z8arDjIiN4-8" source="HK79JXwR90Z8arDjIiN4-44">
          <mxGeometry relative="1" as="geometry">
            <Array as="points">
              <mxPoint x="10" y="298" />
              <mxPoint x="10" y="460" />
              <mxPoint x="80" y="460" />
            </Array>
            <mxPoint x="80" y="480" as="targetPoint" />
          </mxGeometry>
        </mxCell>
        <mxCell id="HK79JXwR90Z8arDjIiN4-105" style="edgeStyle=orthogonalEdgeStyle;rounded=0;orthogonalLoop=1;jettySize=auto;html=1;exitX=0.5;exitY=1;exitDx=0;exitDy=0;entryX=0.5;entryY=0;entryDx=0;entryDy=0;" edge="1" parent="HK79JXwR90Z8arDjIiN4-8" source="HK79JXwR90Z8arDjIiN4-102" target="HK79JXwR90Z8arDjIiN4-104">
          <mxGeometry relative="1" as="geometry" />
        </mxCell>
        <mxCell id="HK79JXwR90Z8arDjIiN4-102" value="&lt;span style=&quot;font-size: 12px;&quot;&gt;查询的排序字段&lt;/span&gt;&lt;span style=&quot;font-size: 12px;&quot;&gt;处理&lt;/span&gt;" style="whiteSpace=wrap;html=1;fontSize=8;fontFamily=Verdana;rounded=0;shadow=0;labelBackgroundColor=none;strokeWidth=1;" vertex="1" parent="HK79JXwR90Z8arDjIiN4-8">
          <mxGeometry x="30" y="260" width="100" height="60" as="geometry" />
        </mxCell>
        <mxCell id="HK79JXwR90Z8arDjIiN4-107" style="edgeStyle=orthogonalEdgeStyle;rounded=0;orthogonalLoop=1;jettySize=auto;html=1;exitX=0.5;exitY=1;exitDx=0;exitDy=0;entryX=0.5;entryY=0;entryDx=0;entryDy=0;" edge="1" parent="HK79JXwR90Z8arDjIiN4-8" source="HK79JXwR90Z8arDjIiN4-104" target="HK79JXwR90Z8arDjIiN4-106">
          <mxGeometry relative="1" as="geometry" />
        </mxCell>
        <mxCell id="HK79JXwR90Z8arDjIiN4-104" value="&lt;span style=&quot;font-size: 12px;&quot;&gt;处理查询条件中操作开始结束、建票开始结束、工作开始结束时间的格式&lt;/span&gt;" style="whiteSpace=wrap;html=1;fontSize=8;fontFamily=Verdana;rounded=0;shadow=0;labelBackgroundColor=none;strokeWidth=1;" vertex="1" parent="HK79JXwR90Z8arDjIiN4-8">
          <mxGeometry x="30" y="360" width="100" height="60" as="geometry" />
        </mxCell>
        <mxCell id="HK79JXwR90Z8arDjIiN4-106" value="&lt;span style=&quot;font-size: 12px;&quot;&gt;为不同过滤字段设置比较符&lt;/span&gt;" style="whiteSpace=wrap;html=1;fontSize=8;fontFamily=Verdana;rounded=0;shadow=0;labelBackgroundColor=none;strokeWidth=1;" vertex="1" parent="HK79JXwR90Z8arDjIiN4-8">
          <mxGeometry x="30" y="460" width="100" height="60" as="geometry" />
        </mxCell>
        <mxCell id="HK79JXwR90Z8arDjIiN4-108" value="&lt;span style=&quot;font-size: 12px;&quot;&gt;查询的排序字段&lt;/span&gt;&lt;span style=&quot;font-size: 12px;&quot;&gt;处理&lt;/span&gt;" style="whiteSpace=wrap;html=1;fontSize=8;fontFamily=Verdana;rounded=0;shadow=0;labelBackgroundColor=none;strokeWidth=1;" vertex="1" parent="HK79JXwR90Z8arDjIiN4-8">
          <mxGeometry x="30" y="160" width="100" height="60" as="geometry" />
        </mxCell>
        <mxCell id="HK79JXwR90Z8arDjIiN4-47" value="工作票查询" style="swimlane;html=1;startSize=20;" vertex="1" parent="HK79JXwR90Z8arDjIiN4-1">
          <mxGeometry x="320" y="20" width="160" height="670" as="geometry" />
        </mxCell>
        <mxCell id="HK79JXwR90Z8arDjIiN4-48" style="edgeStyle=orthogonalEdgeStyle;rounded=0;orthogonalLoop=1;jettySize=auto;html=1;exitX=0.5;exitY=1;exitDx=0;exitDy=0;" edge="1" parent="HK79JXwR90Z8arDjIiN4-47" source="HK79JXwR90Z8arDjIiN4-49" target="HK79JXwR90Z8arDjIiN4-51">
          <mxGeometry relative="1" as="geometry" />
        </mxCell>
        <mxCell id="HK79JXwR90Z8arDjIiN4-49" value="&lt;span style=&quot;font-size: 12px;&quot;&gt;调用单表查询公共类查询操作票数据&lt;/span&gt;" style="whiteSpace=wrap;html=1;fontSize=8;fontFamily=Verdana;rounded=0;shadow=0;labelBackgroundColor=none;strokeWidth=1;" vertex="1" parent="HK79JXwR90Z8arDjIiN4-47">
          <mxGeometry x="30" y="160" width="100" height="60" as="geometry" />
        </mxCell>
        <mxCell id="HK79JXwR90Z8arDjIiN4-50" style="edgeStyle=orthogonalEdgeStyle;rounded=0;orthogonalLoop=1;jettySize=auto;html=1;exitX=0.5;exitY=1;exitDx=0;exitDy=0;entryX=0.5;entryY=0;entryDx=0;entryDy=0;" edge="1" parent="HK79JXwR90Z8arDjIiN4-47" source="HK79JXwR90Z8arDjIiN4-51" target="HK79JXwR90Z8arDjIiN4-53">
          <mxGeometry relative="1" as="geometry" />
        </mxCell>
        <mxCell id="HK79JXwR90Z8arDjIiN4-51" value="&lt;span style=&quot;font-size: 12px;&quot;&gt;字典值查询&lt;/span&gt;" style="whiteSpace=wrap;html=1;fontSize=8;fontFamily=Verdana;rounded=0;shadow=0;labelBackgroundColor=none;strokeWidth=1;" vertex="1" parent="HK79JXwR90Z8arDjIiN4-47">
          <mxGeometry x="30" y="260" width="100" height="60" as="geometry" />
        </mxCell>
        <mxCell id="HK79JXwR90Z8arDjIiN4-53" value="&lt;span style=&quot;font-size: 12px;&quot;&gt;字典码值转义并赋值给票数据字段&lt;/span&gt;" style="whiteSpace=wrap;html=1;fontSize=8;fontFamily=Verdana;rounded=0;shadow=0;labelBackgroundColor=none;strokeWidth=1;" vertex="1" parent="HK79JXwR90Z8arDjIiN4-47">
          <mxGeometry x="30" y="360" width="100" height="60" as="geometry" />
        </mxCell>
        <mxCell id="HK79JXwR90Z8arDjIiN4-55" value="子表数据查询" style="swimlane;html=1;startSize=20;" vertex="1" parent="HK79JXwR90Z8arDjIiN4-1">
          <mxGeometry x="480" y="20" width="160" height="670" as="geometry" />
        </mxCell>
        <mxCell id="HK79JXwR90Z8arDjIiN4-56" style="edgeStyle=orthogonalEdgeStyle;rounded=0;orthogonalLoop=1;jettySize=auto;html=1;exitX=0.5;exitY=1;exitDx=0;exitDy=0;entryX=0.5;entryY=0;entryDx=0;entryDy=0;" edge="1" parent="HK79JXwR90Z8arDjIiN4-55" source="HK79JXwR90Z8arDjIiN4-57" target="HK79JXwR90Z8arDjIiN4-59">
          <mxGeometry relative="1" as="geometry">
            <mxPoint x="80" y="257.5" as="targetPoint" />
          </mxGeometry>
        </mxCell>
        <mxCell id="HK79JXwR90Z8arDjIiN4-57" value="&lt;span style=&quot;font-size: 12px;&quot;&gt;查询检修计划编号并赋值&lt;/span&gt;" style="whiteSpace=wrap;html=1;fontSize=8;fontFamily=Verdana;rounded=0;shadow=0;labelBackgroundColor=none;strokeWidth=1;" vertex="1" parent="HK79JXwR90Z8arDjIiN4-55">
          <mxGeometry x="30" y="160" width="100" height="60" as="geometry" />
        </mxCell>
        <mxCell id="HK79JXwR90Z8arDjIiN4-58" style="edgeStyle=orthogonalEdgeStyle;rounded=0;orthogonalLoop=1;jettySize=auto;html=1;exitX=0.5;exitY=1;exitDx=0;exitDy=0;entryX=0.5;entryY=0;entryDx=0;entryDy=0;" edge="1" parent="HK79JXwR90Z8arDjIiN4-55" source="HK79JXwR90Z8arDjIiN4-59" target="HK79JXwR90Z8arDjIiN4-110">
          <mxGeometry relative="1" as="geometry">
            <mxPoint x="80" y="350" as="targetPoint" />
          </mxGeometry>
        </mxCell>
        <mxCell id="HK79JXwR90Z8arDjIiN4-59" value="&lt;span style=&quot;font-size: 12px;&quot;&gt;查询工作票任务来源关联数据并赋值&lt;/span&gt;" style="whiteSpace=wrap;html=1;fontSize=8;fontFamily=Verdana;rounded=0;shadow=0;labelBackgroundColor=none;strokeWidth=1;" vertex="1" parent="HK79JXwR90Z8arDjIiN4-55">
          <mxGeometry x="30" y="260" width="100" height="60" as="geometry" />
        </mxCell>
        <mxCell id="HK79JXwR90Z8arDjIiN4-111" style="edgeStyle=orthogonalEdgeStyle;rounded=0;orthogonalLoop=1;jettySize=auto;html=1;exitX=0.5;exitY=1;exitDx=0;exitDy=0;entryX=0.5;entryY=0;entryDx=0;entryDy=0;" edge="1" parent="HK79JXwR90Z8arDjIiN4-55" source="HK79JXwR90Z8arDjIiN4-110" target="HK79JXwR90Z8arDjIiN4-87">
          <mxGeometry relative="1" as="geometry" />
        </mxCell>
        <mxCell id="HK79JXwR90Z8arDjIiN4-110" value="&lt;span style=&quot;font-size: 12px;&quot;&gt;查询派发关系表数据并赋值&lt;/span&gt;" style="whiteSpace=wrap;html=1;fontSize=8;fontFamily=Verdana;rounded=0;shadow=0;labelBackgroundColor=none;strokeWidth=1;" vertex="1" parent="HK79JXwR90Z8arDjIiN4-55">
          <mxGeometry x="30" y="360" width="100" height="60" as="geometry" />
        </mxCell>
        <mxCell id="HK79JXwR90Z8arDjIiN4-87" value="&lt;span style=&quot;font-size: 12px;&quot;&gt;成功返回&lt;/span&gt;" style="whiteSpace=wrap;html=1;fontSize=8;fontFamily=Verdana;rounded=0;shadow=0;labelBackgroundColor=none;strokeWidth=1;" vertex="1" parent="HK79JXwR90Z8arDjIiN4-55">
          <mxGeometry x="30" y="590" width="100" height="60" as="geometry" />
        </mxCell>
        <mxCell id="HK79JXwR90Z8arDjIiN4-92" style="edgeStyle=orthogonalEdgeStyle;rounded=0;orthogonalLoop=1;jettySize=auto;html=1;exitX=0.5;exitY=1;exitDx=0;exitDy=0;entryX=0.5;entryY=0;entryDx=0;entryDy=0;" edge="1" parent="HK79JXwR90Z8arDjIiN4-1" source="HK79JXwR90Z8arDjIiN4-53" target="HK79JXwR90Z8arDjIiN4-57">
          <mxGeometry relative="1" as="geometry">
            <Array as="points">
              <mxPoint x="400" y="480" />
              <mxPoint x="470" y="480" />
              <mxPoint x="470" y="140" />
              <mxPoint x="560" y="140" />
            </Array>
            <mxPoint x="400" y="540" as="sourcePoint" />
          </mxGeometry>
        </mxCell>
        <mxCell id="HK79JXwR90Z8arDjIiN4-100" style="edgeStyle=orthogonalEdgeStyle;rounded=0;orthogonalLoop=1;jettySize=auto;html=1;exitX=0.5;exitY=1;exitDx=0;exitDy=0;entryX=0.5;entryY=0;entryDx=0;entryDy=0;" edge="1" parent="HK79JXwR90Z8arDjIiN4-1" source="HK79JXwR90Z8arDjIiN4-97">
          <mxGeometry relative="1" as="geometry">
            <mxPoint x="240" y="180" as="targetPoint" />
            <Array as="points">
              <mxPoint x="80" y="420" />
              <mxPoint x="150" y="420" />
              <mxPoint x="150" y="140" />
              <mxPoint x="240" y="140" />
            </Array>
          </mxGeometry>
        </mxCell>
        <mxCell id="HK79JXwR90Z8arDjIiN4-101" value="&lt;font style=&quot;font-size: 10px;&quot;&gt;否&lt;/font&gt;" style="edgeLabel;html=1;align=center;verticalAlign=middle;resizable=0;points=[];" vertex="1" connectable="0" parent="HK79JXwR90Z8arDjIiN4-100">
          <mxGeometry x="-0.9383" y="-1" relative="1" as="geometry">
            <mxPoint as="offset" />
          </mxGeometry>
        </mxCell>
        <mxCell id="HK79JXwR90Z8arDjIiN4-109" style="edgeStyle=orthogonalEdgeStyle;rounded=0;orthogonalLoop=1;jettySize=auto;html=1;exitX=0.5;exitY=1;exitDx=0;exitDy=0;entryX=0.5;entryY=0;entryDx=0;entryDy=0;" edge="1" parent="HK79JXwR90Z8arDjIiN4-1" source="HK79JXwR90Z8arDjIiN4-106" target="HK79JXwR90Z8arDjIiN4-49">
          <mxGeometry relative="1" as="geometry">
            <Array as="points">
              <mxPoint x="240" y="580" />
              <mxPoint x="310" y="580" />
              <mxPoint x="310" y="140" />
              <mxPoint x="400" y="140" />
            </Array>
          </mxGeometry>
        </mxCell>
      </root>
    </mxGraphModel>
  </diagram>
</mxfile>
